<?xml version="1.0" encoding="UTF-8" standalone="no"?>
<!DOCTYPE svg PUBLIC "-//W3C//DTD SVG 1.1//EN"
 "http://www.w3.org/Graphics/SVG/1.1/DTD/svg11.dtd">
<!-- Generated by graphviz version 2.38.0 (20140413.2041)
 -->
<!-- Title: G Pages: 1 -->
<svg width="153pt" height="332pt"
 viewBox="0.00 0.00 153.45 332.00" xmlns="http://www.w3.org/2000/svg" xmlns:xlink="http://www.w3.org/1999/xlink">
<g id="graph0" class="graph" transform="scale(1 1) rotate(0) translate(4 328)">
<title>G</title>
<polygon fill="white" stroke="none" points="-4,4 -4,-328 149.445,-328 149.445,4 -4,4"/>
<!-- Interpreter -->
<g id="node1" class="node"><title>Interpreter</title>
<polygon fill="none" stroke="black" points="134.945,-324 80.9452,-324 80.9452,-288 134.945,-288 134.945,-324"/>
<text text-anchor="middle" x="107.945" y="-302.3" font-family="Times New Roman,serif" font-size="14.00">解释器</text>
</g>
<!-- C1 -->
<g id="node2" class="node"><title>C1</title>
<polygon fill="none" stroke="black" points="107.945,-252 53.9452,-252 53.9452,-216 107.945,-216 107.945,-252"/>
<text text-anchor="middle" x="80.9452" y="-230.3" font-family="Times New Roman,serif" font-size="14.00">C1</text>
</g>
<!-- Interpreter&#45;&gt;C1 -->
<g id="edge1" class="edge"><title>Interpreter&#45;&gt;C1</title>
<path fill="none" stroke="black" d="M101.271,-287.697C98.2303,-279.813 94.5626,-270.304 91.1845,-261.546"/>
<polygon fill="black" stroke="black" points="94.4069,-260.175 87.5426,-252.104 87.8759,-262.694 94.4069,-260.175"/>
</g>
<!-- C2 -->
<g id="node3" class="node"><title>C2</title>
<polygon fill="none" stroke="black" points="61.9452,-180 7.94521,-180 7.94521,-144 61.9452,-144 61.9452,-180"/>
<text text-anchor="middle" x="34.9452" y="-158.3" font-family="Times New Roman,serif" font-size="14.00">C2</text>
</g>
<!-- C1&#45;&gt;C2 -->
<g id="edge2" class="edge"><title>C1&#45;&gt;C2</title>
<path fill="none" stroke="black" d="M69.5744,-215.697C64.2268,-207.559 57.7409,-197.689 51.8346,-188.701"/>
<polygon fill="black" stroke="black" points="54.602,-186.539 46.1852,-180.104 48.7521,-190.384 54.602,-186.539"/>
</g>
<!-- CC -->
<g id="node5" class="node"><title>CC</title>
<ellipse fill="none" stroke="black" cx="53.9452" cy="-90" rx="53.8905" ry="18"/>
<text text-anchor="middle" x="53.9452" y="-86.3" font-family="Times New Roman,serif" font-size="14.00">Code cache</text>
</g>
<!-- C1&#45;&gt;CC -->
<g id="edge3" class="edge"><title>C1&#45;&gt;CC</title>
<path fill="none" stroke="black" d="M80.0258,-215.776C78.8264,-197.727 76.2241,-168.629 70.9452,-144 69.0735,-135.267 66.3376,-125.932 63.6053,-117.568"/>
<polygon fill="black" stroke="black" points="66.8681,-116.291 60.3327,-107.952 60.2413,-118.547 66.8681,-116.291"/>
</g>
<!-- C2&#45;&gt;CC -->
<g id="edge4" class="edge"><title>C2&#45;&gt;CC</title>
<path fill="none" stroke="black" d="M39.6418,-143.697C41.7586,-135.898 44.3072,-126.509 46.663,-117.829"/>
<polygon fill="black" stroke="black" points="50.0608,-118.672 49.3026,-108.104 43.3052,-116.838 50.0608,-118.672"/>
</g>
<!-- Deoptimization -->
<g id="node4" class="node"><title>Deoptimization</title>
<polygon fill="none" stroke="black" points="145.445,-36 44.4452,-36 44.4452,-0 145.445,-0 145.445,-36"/>
<text text-anchor="middle" x="94.9452" y="-14.3" font-family="Times New Roman,serif" font-size="14.00">Deoptimization</text>
</g>
<!-- Deoptimization&#45;&gt;Interpreter -->
<g id="edge6" class="edge"><title>Deoptimization&#45;&gt;Interpreter</title>
<path fill="none" stroke="black" d="M104.076,-36.1204C108.953,-46.2438 114.453,-59.4938 116.945,-72 131.565,-145.353 120.393,-234.194 113.044,-277.957"/>
<polygon fill="black" stroke="black" points="109.593,-277.375 111.321,-287.828 116.488,-278.579 109.593,-277.375"/>
</g>
<!-- CC&#45;&gt;Deoptimization -->
<g id="edge5" class="edge"><title>CC&#45;&gt;Deoptimization</title>
<path fill="none" stroke="black" d="M63.8702,-72.055C68.6337,-63.922 74.4464,-53.998 79.7502,-44.9426"/>
<polygon fill="black" stroke="black" points="82.7928,-46.6731 84.8268,-36.2753 76.7526,-43.1352 82.7928,-46.6731"/>
</g>
</g>
</svg>
