<?xml version="1.0" encoding="UTF-8" standalone="no"?>
<!DOCTYPE svg PUBLIC "-//W3C//DTD SVG 1.1//EN"
 "http://www.w3.org/Graphics/SVG/1.1/DTD/svg11.dtd">
<!-- Generated by graphviz version 2.38.0 (20140413.2041)
 -->
<!-- Title: G Pages: 1 -->
<svg width="1230pt" height="196pt"
 viewBox="0.00 0.00 1230.00 196.00" xmlns="http://www.w3.org/2000/svg" xmlns:xlink="http://www.w3.org/1999/xlink">
<g id="graph0" class="graph" transform="scale(1 1) rotate(0) translate(4 192)">
<title>G</title>
<polygon fill="white" stroke="none" points="-4,4 -4,-192 1226,-192 1226,4 -4,4"/>
<g id="clust1" class="cluster"><title>clusterA</title>
<polygon fill="none" stroke="black" points="8,-8 8,-180 522,-180 522,-8 8,-8"/>
<text text-anchor="middle" x="265" y="-164.8" font-family="Times New Roman,serif" font-size="14.00">jvm启动初始化时</text>
</g>
<g id="clust2" class="cluster"><title>clusterC</title>
<polygon fill="none" stroke="black" points="381,-16 381,-149 514,-149 514,-16 381,-16"/>
<text text-anchor="middle" x="447.5" y="-133.8" font-family="Times New Roman,serif" font-size="14.00">code cache</text>
</g>
<g id="clust3" class="cluster"><title>clusterB</title>
<polygon fill="none" stroke="black" points="807,-58 807,-167 1214,-167 1214,-58 807,-58"/>
<text text-anchor="middle" x="1010.5" y="-151.8" font-family="Times New Roman,serif" font-size="14.00">jvm运行时</text>
</g>
<!-- tt -->
<g id="node1" class="node"><title>tt</title>
<polygon fill="none" stroke="black" points="16,-64 16,-110 206,-110 206,-64 16,-64"/>
<text text-anchor="middle" x="111" y="-94.8" font-family="Times New Roman,serif" font-size="14.00">templatetable</text>
<polyline fill="none" stroke="black" points="16,-87 206,-87 "/>
<text text-anchor="middle" x="111" y="-71.8" font-family="Times New Roman,serif" font-size="14.00">bytecode &#45;&#45; template parameter</text>
</g>
<!-- tg -->
<g id="node2" class="node"><title>tg</title>
<polygon fill="none" stroke="black" points="243,-17 243,-109 352,-109 352,-17 243,-17"/>
<text text-anchor="middle" x="297.5" y="-93.8" font-family="Times New Roman,serif" font-size="14.00">templatgenerator</text>
<polyline fill="none" stroke="black" points="243,-86 352,-86 "/>
<text text-anchor="middle" x="297.5" y="-70.8" font-family="Times New Roman,serif" font-size="14.00">for x86</text>
<polyline fill="none" stroke="black" points="243,-63 352,-63 "/>
<text text-anchor="middle" x="297.5" y="-47.8" font-family="Times New Roman,serif" font-size="14.00">for arm</text>
<polyline fill="none" stroke="black" points="243,-40 352,-40 "/>
<text text-anchor="middle" x="297.5" y="-24.8" font-family="Times New Roman,serif" font-size="14.00">...</text>
</g>
<!-- tt&#45;&gt;tg -->
<g id="edge1" class="edge"><title>tt:f1&#45;&gt;tg:f1</title>
<path fill="none" stroke="black" d="M206,-75C218.462,-75 223.841,-75 232.872,-75"/>
<polygon fill="black" stroke="black" points="233,-78.5001 243,-75 233,-71.5001 233,-78.5001"/>
</g>
<!-- cl -->
<g id="node3" class="node"><title>cl</title>
<polygon fill="none" stroke="black" points="389,-25 389,-117 506,-117 506,-25 389,-25"/>
<text text-anchor="middle" x="447.5" y="-101.8" font-family="Times New Roman,serif" font-size="14.00">interpreter codelet</text>
<polyline fill="none" stroke="black" points="389,-94 506,-94 "/>
<text text-anchor="middle" x="447.5" y="-78.8" font-family="Times New Roman,serif" font-size="14.00">...</text>
<polyline fill="none" stroke="black" points="389,-71 506,-71 "/>
<text text-anchor="middle" x="447.5" y="-55.8" font-family="Times New Roman,serif" font-size="14.00">code</text>
<polyline fill="none" stroke="black" points="389,-48 506,-48 "/>
<text text-anchor="middle" x="447.5" y="-32.8" font-family="Times New Roman,serif" font-size="14.00">...</text>
</g>
<!-- tg&#45;&gt;cl -->
<g id="edge2" class="edge"><title>tg:f1&#45;&gt;cl:f2</title>
<path fill="none" stroke="black" d="M352,-75C365.25,-75 368.876,-65.6211 377.615,-61.2247"/>
<polygon fill="black" stroke="black" points="378.512,-64.6103 387.5,-59 376.976,-57.7811 378.512,-64.6103"/>
</g>
<!-- rf -->
<g id="node4" class="node"><title>rf</title>
<polygon fill="none" stroke="black" points="815,-66.5 815,-135.5 908,-135.5 908,-66.5 815,-66.5"/>
<text text-anchor="middle" x="861.5" y="-120.3" font-family="Times New Roman,serif" font-size="14.00">runtime.frame</text>
<polyline fill="none" stroke="black" points="815,-112.5 908,-112.5 "/>
<text text-anchor="middle" x="861.5" y="-97.3" font-family="Times New Roman,serif" font-size="14.00">pc</text>
<polyline fill="none" stroke="black" points="815,-89.5 908,-89.5 "/>
<text text-anchor="middle" x="861.5" y="-74.3" font-family="Times New Roman,serif" font-size="14.00">codeblob</text>
</g>
<!-- cl&#45;&gt;rf -->
<g id="edge6" class="edge"><title>cl:f2&#45;&gt;rf:f2</title>
<path fill="none" stroke="red" stroke-dasharray="5,2" d="M507.5,-59C640.302,-59 675.472,-77.0474 803.316,-77.9639"/>
<polygon fill="red" stroke="red" points="803.488,-81.4644 813.5,-78 803.513,-74.4645 803.488,-81.4644"/>
<text text-anchor="middle" x="642.5" y="-79.8" font-family="Times New Roman,serif" font-size="14.00"> 字节码对象 对应的 代码片段 设置给cb指针 </text>
</g>
<!-- ip -->
<g id="node5" class="node"><title>ip</title>
<polygon fill="none" stroke="black" points="1144,-66.5 1144,-135.5 1206,-135.5 1206,-66.5 1144,-66.5"/>
<text text-anchor="middle" x="1175" y="-120.3" font-family="Times New Roman,serif" font-size="14.00"> </text>
<polyline fill="none" stroke="black" points="1144,-112.5 1206,-112.5 "/>
<text text-anchor="middle" x="1175" y="-97.3" font-family="Times New Roman,serif" font-size="14.00">字节码表</text>
<polyline fill="none" stroke="black" points="1144,-89.5 1206,-89.5 "/>
<text text-anchor="middle" x="1175" y="-74.3" font-family="Times New Roman,serif" font-size="14.00">转发表</text>
</g>
<!-- rf&#45;&gt;ip -->
<g id="edge3" class="edge"><title>rf:f1&#45;&gt;ip:f1</title>
<path fill="none" stroke="red" d="M909.5,-101C1010.26,-101 1037.96,-101 1133.87,-101"/>
<polygon fill="red" stroke="red" points="1134,-104.5 1144,-101 1134,-97.5001 1134,-104.5"/>
<text text-anchor="middle" x="1047" y="-104.8" font-family="Times New Roman,serif" font-size="14.00"> 指针指向的值转成 字节码对象 </text>
</g>
<!-- ip&#45;&gt;cl -->
<g id="edge5" class="edge"><title>ip:f2&#45;&gt;cl:f2</title>
<path fill="none" stroke="red" d="M1144,-78C1056.31,-78 1037.33,-50.0338 950,-42 871.664,-34.7932 851.639,-39.898 773,-42 664.884,-44.8899 637.444,-42.6226 530,-55 524.324,-55.6538 521.128,-56.8377 517.61,-57.7485"/>
<polygon fill="red" stroke="red" points="516.994,-54.298 507.5,-59 517.854,-61.2449 516.994,-54.298"/>
<text text-anchor="middle" x="861.5" y="-45.8" font-family="Times New Roman,serif" font-size="14.00"> 根据分发关系找到对应的代码片段 </text>
</g>
<!-- ip&#45;&gt;ip -->
<g id="edge4" class="edge"><title>ip:f1&#45;&gt;ip:f2</title>
<path fill="none" stroke="red" d="M1143.86,-106.129C1113.43,-108.467 1080,-104.395 1080,-89.5 1080,-76.2346 1106.52,-71.5531 1133.82,-72.3396"/>
<polygon fill="red" stroke="red" points="1133.69,-75.8378 1143.86,-72.871 1134.06,-68.8475 1133.69,-75.8378"/>
<text text-anchor="middle" x="1004.5" y="-97.3" font-family="Times New Roman,serif" font-size="14.00"> 字节码对象 对应的 代码片段 </text>
</g>
</g>
</svg>
