<?xml version="1.0" encoding="UTF-8" standalone="no"?>
<!DOCTYPE svg PUBLIC "-//W3C//DTD SVG 1.1//EN"
 "http://www.w3.org/Graphics/SVG/1.1/DTD/svg11.dtd">
<!-- Generated by graphviz version 2.38.0 (20140413.2041)
 -->
<!-- Title: G Pages: 1 -->
<svg width="405pt" height="44pt"
 viewBox="0.00 0.00 405.00 44.00" xmlns="http://www.w3.org/2000/svg" xmlns:xlink="http://www.w3.org/1999/xlink">
<g id="graph0" class="graph" transform="scale(1 1) rotate(0) translate(4 40)">
<title>G</title>
<polygon fill="white" stroke="none" points="-4,4 -4,-40 401,-40 401,4 -4,4"/>
<!-- bt -->
<g id="node1" class="node"><title>bt</title>
<polygon fill="none" stroke="black" points="83,-36 0,-36 0,-0 83,-0 83,-36"/>
<text text-anchor="middle" x="41.5" y="-14.3" font-family="Times New Roman,serif" font-size="14.00">Byte Codes</text>
</g>
<!-- HIR -->
<g id="node3" class="node"><title>HIR</title>
<polygon fill="none" stroke="black" points="173,-36 119,-36 119,-0 173,-0 173,-36"/>
<text text-anchor="middle" x="146" y="-14.3" font-family="Times New Roman,serif" font-size="14.00">HIR</text>
</g>
<!-- bt&#45;&gt;HIR -->
<g id="edge1" class="edge"><title>bt&#45;&gt;HIR</title>
<path fill="none" stroke="black" d="M83.0107,-18C91.5093,-18 100.42,-18 108.752,-18"/>
<polygon fill="black" stroke="black" points="108.92,-21.5001 118.919,-18 108.919,-14.5001 108.92,-21.5001"/>
</g>
<!-- machinecode -->
<g id="node2" class="node"><title>machinecode</title>
<polygon fill="none" stroke="black" points="397,-36 299,-36 299,-0 397,-0 397,-36"/>
<text text-anchor="middle" x="348" y="-14.3" font-family="Times New Roman,serif" font-size="14.00">Machine Code</text>
</g>
<!-- LIR -->
<g id="node4" class="node"><title>LIR</title>
<polygon fill="none" stroke="black" points="263,-36 209,-36 209,-0 263,-0 263,-36"/>
<text text-anchor="middle" x="236" y="-14.3" font-family="Times New Roman,serif" font-size="14.00">LIR</text>
</g>
<!-- HIR&#45;&gt;LIR -->
<g id="edge2" class="edge"><title>HIR&#45;&gt;LIR</title>
<path fill="none" stroke="black" d="M173.403,-18C181.393,-18 190.311,-18 198.824,-18"/>
<polygon fill="black" stroke="black" points="198.919,-21.5001 208.919,-18 198.919,-14.5001 198.919,-21.5001"/>
</g>
<!-- LIR&#45;&gt;machinecode -->
<g id="edge3" class="edge"><title>LIR&#45;&gt;machinecode</title>
<path fill="none" stroke="black" d="M263.068,-18C270.823,-18 279.651,-18 288.599,-18"/>
<polygon fill="black" stroke="black" points="288.702,-21.5001 298.702,-18 288.702,-14.5001 288.702,-21.5001"/>
</g>
</g>
</svg>
