<?xml version="1.0" encoding="UTF-8" standalone="no"?>
<!DOCTYPE svg PUBLIC "-//W3C//DTD SVG 1.1//EN"
 "http://www.w3.org/Graphics/SVG/1.1/DTD/svg11.dtd">
<!-- Generated by graphviz version 2.38.0 (20140413.2041)
 -->
<!-- Title: G Pages: 1 -->
<svg width="497pt" height="44pt"
 viewBox="0.00 0.00 497.00 44.00" xmlns="http://www.w3.org/2000/svg" xmlns:xlink="http://www.w3.org/1999/xlink">
<g id="graph0" class="graph" transform="scale(1 1) rotate(0) translate(4 40)">
<title>G</title>
<polygon fill="white" stroke="none" points="-4,4 -4,-40 493,-40 493,4 -4,4"/>
<!-- 字节码 -->
<g id="node1" class="node"><title>字节码</title>
<polygon fill="none" stroke="black" points="54,-36 0,-36 0,-0 54,-0 54,-36"/>
<text text-anchor="middle" x="27" y="-14.3" font-family="Times New Roman,serif" font-size="14.00">字节码</text>
</g>
<!-- 分割成block -->
<g id="node2" class="node"><title>分割成block</title>
<polygon fill="none" stroke="black" points="172,-36 90,-36 90,-0 172,-0 172,-36"/>
<text text-anchor="middle" x="131" y="-14.3" font-family="Times New Roman,serif" font-size="14.00">分割成block</text>
</g>
<!-- 字节码&#45;&gt;分割成block -->
<g id="edge1" class="edge"><title>字节码&#45;&gt;分割成block</title>
<path fill="none" stroke="black" d="M54.0028,-18C61.8087,-18 70.6525,-18 79.4773,-18"/>
<polygon fill="black" stroke="black" points="79.7647,-21.5001 89.7647,-18 79.7647,-14.5001 79.7647,-21.5001"/>
</g>
<!-- 构建成图 -->
<g id="node3" class="node"><title>构建成图</title>
<polygon fill="none" stroke="black" points="270,-36 208,-36 208,-0 270,-0 270,-36"/>
<text text-anchor="middle" x="239" y="-14.3" font-family="Times New Roman,serif" font-size="14.00">构建成图</text>
</g>
<!-- 分割成block&#45;&gt;构建成图 -->
<g id="edge2" class="edge"><title>分割成block&#45;&gt;构建成图</title>
<path fill="none" stroke="black" d="M172.074,-18C180.401,-18 189.181,-18 197.523,-18"/>
<polygon fill="black" stroke="black" points="197.786,-21.5001 207.786,-18 197.786,-14.5001 197.786,-21.5001"/>
</g>
<!-- 基于图优化 -->
<g id="node4" class="node"><title>基于图优化</title>
<polygon fill="none" stroke="black" points="379,-36 306,-36 306,-0 379,-0 379,-36"/>
<text text-anchor="middle" x="342.5" y="-14.3" font-family="Times New Roman,serif" font-size="14.00">基于图优化</text>
</g>
<!-- 构建成图&#45;&gt;基于图优化 -->
<g id="edge3" class="edge"><title>构建成图&#45;&gt;基于图优化</title>
<path fill="none" stroke="black" d="M270.179,-18C278.243,-18 287.141,-18 295.838,-18"/>
<polygon fill="black" stroke="black" points="295.893,-21.5001 305.893,-18 295.893,-14.5001 295.893,-21.5001"/>
</g>
<!-- 输出成HIR -->
<g id="node5" class="node"><title>输出成HIR</title>
<polygon fill="none" stroke="black" points="489,-36 415,-36 415,-0 489,-0 489,-36"/>
<text text-anchor="middle" x="452" y="-14.3" font-family="Times New Roman,serif" font-size="14.00">输出成HIR</text>
</g>
<!-- 基于图优化&#45;&gt;输出成HIR -->
<g id="edge4" class="edge"><title>基于图优化&#45;&gt;输出成HIR</title>
<path fill="none" stroke="black" d="M379.296,-18C387.459,-18 396.247,-18 404.777,-18"/>
<polygon fill="black" stroke="black" points="404.994,-21.5001 414.994,-18 404.994,-14.5001 404.994,-21.5001"/>
</g>
</g>
</svg>
